{"title":"Undead Apocalypse (2012) WEBRip","uid":8390722,"size":1005173788,"categoryP":"video","categoryS":"movies","magnet":"?xt=urn:btih:eac70e5707031324e79226761c40edf329cf7aaf&amp;dn=Undead+Apocalypse+%282012%29+WEBRip&amp;tr=udp%3A%2F%2Ftracker.openbittorrent.com%3A80&amp;tr=udp%3A%2F%2Fopen.demonii.com%3A1337&amp;tr=udp%3A%2F%2Ftracker.coppersurfer.tk%3A6969&amp;tr=udp%3A%2F%2Fexodus.desync.com%3A6969","seeders":0,"leechers":1,"uploader":"RadioResearch","files":3,"time":1366422179,"description":"*******************************************************************************\n                        Undead Apocalypse (2012) WEBRip\n*******************************************************************************\n\n-------------------------------------------------------------------------------\n                              General Information\n-------------------------------------------------------------------------------\nType.................: Movie\n\n\n\nVideo Format.........: AVI\nVideo Bitrate........: 1596\nResolution...........: 640 x 360\nColor................: 8 bit\nFPS..................: 24.000\nSource...............: WEB 16:9\nOriginal Format......: NTSC\nGenre................: Horror\nIMDb Rating..........: 5.8\nMovie Information....: http://www.imdb.com/title/tt2173566/\n\n-------------------------------------------------------------------------------\n                               Post Information\n-------------------------------------------------------------------------------\nPosted by............: RadioResearch\nPosted on............: 4/19/2013\n\n-------------------------------------------------------------------------------\n                                 Release Notes\n-------------------------------------------------------------------------------\nSEEDBOX SUPPORTED!!\n\nA bio-attack by Islamic extremist terrorists causes a sudden zombie outbreak. A \nsmall group of survivors at a university struggles to reach a professor's lab \nwhere a possible cure to the pathogen resides. \n\nEnjoy!\n\nRadioResearch\n\nGeneral\nComplete name                            : G:Undead Apocalypse (2012) WEBRip\nUndead Apocalypse.avi\nFormat                                   : AVI\nFormat/Info                              : Audio Video Interleave\nFile size                                : 959 MiB\nDuration                                 : 1h 23mn\nOverall bit rate                         : 1 596 Kbps\n\nVideo\nID                                       : 0\nFormat                                   : mp43\nCodec ID                                 : mp43\nDuration                                 : 1h 23mn\nBit rate                                 : 1 456 Kbps\nWidth                                    : 640 pixels\nHeight                                   : 360 pixels\nDisplay aspect ratio                     : 16:9\nFrame rate                               : 24.000 fps\nBits/(Pixel*Frame)                       : 0.263\nStream size                              : 874 MiB (91%)\n\nAudio\nID                                       : 1\nFormat                                   : MPEG Audio\nFormat version                           : Version 1\nFormat profile                           : Layer 3\nMode                                     : Joint stereo\nMode extension                           : MS Stereo\nCodec ID                                 : 55\nCodec ID/Hint                            : MP3\nDuration                                 : 1h 23mn\nBit rate mode                            : Constant\nBit rate                                 : 128 Kbps\nChannel(s)                               : 2 channels\nSampling rate                            : 44.1 KHz\nCompression mode                         : Lossy\nStream size                              : 76.9 MiB (8%)\nAlignment                                : Aligned on interleaves\nInterleave, duration                     : 26 ms (0.63 video frame)\nWriting library                          : LAME3.98.2\n\n\n\n-------------------------------------------------------------------------------\nGenerated with Cool NFO Creator - http://fly.to/coolbeans\n-------------------------------------------------------------------------------\n","torrent":{"xt":"urn:btih:eac70e5707031324e79226761c40edf329cf7aaf","amp;dn":"Undead+Apocalypse+%282012%29+WEBRip","amp;tr":["udp%3A%2F%2Ftracker.openbittorrent.com%3A80","udp%3A%2F%2Fopen.demonii.com%3A1337","udp%3A%2F%2Ftracker.coppersurfer.tk%3A6969","udp%3A%2F%2Fexodus.desync.com%3A6969"],"infoHash":"eac70e5707031324e79226761c40edf329cf7aaf","infoHashBuffer":{"type":"Buffer","data":[234,199,14,87,7,3,19,36,231,146,38,118,28,64,237,243,41,207,122,175]},"announce":[],"urlList":[]}}